<?xml version="1.0" standalone="no"?>
<!DOCTYPE svg PUBLIC "-//W3C//DTD SVG 20010904//EN"
 "http://www.w3.org/TR/2001/REC-SVG-20010904/DTD/svg10.dtd">
<svg version="1.0" xmlns="http://www.w3.org/2000/svg"
 width="512.000000pt" height="512.000000pt" viewBox="0 0 512.000000 512.000000"
 preserveAspectRatio="xMidYMid meet">

<g transform="translate(0.000000,512.000000) scale(0.100000,-0.100000)"
fill="#000000" stroke="none">
<path d="M4127 4743 c-4 -3 -7 -39 -7 -80 l0 -73 75 0 75 0 0 80 0 80 -68 0
c-38 0 -72 -3 -75 -7z"/>
<path d="M4430 4670 l0 -80 75 0 76 0 -3 78 -3 77 -72 3 -73 3 0 -81z"/>
<path d="M4730 4670 l0 -80 75 0 75 0 0 80 0 80 -75 0 -75 0 0 -80z"/>
<path d="M3660 4365 l0 -75 80 0 80 0 0 75 0 75 -80 0 -80 0 0 -75z"/>
<path d="M3970 4365 l0 -75 75 0 75 0 0 75 0 75 -75 0 -75 0 0 -75z"/>
<path d="M4270 4365 l0 -75 80 0 80 0 0 75 0 75 -80 0 -80 0 0 -75z"/>
<path d="M3306 4119 c-99 -20 -193 -111 -215 -209 -6 -25 -11 -78 -11 -117 l0
-73 -135 0 -136 0 -201 155 -201 155 -766 0 c-421 -1 -796 -5 -833 -9 -78 -10
-159 -45 -212 -91 -39 -35 -365 -513 -397 -584 -12 -26 -19 -64 -19 -106 0
-83 30 -149 93 -207 71 -65 111 -73 378 -73 l227 0 -113 -297 c-62 -164 -119
-314 -127 -334 l-15 -35 -312 -109 -311 -108 0 -623 0 -624 409 0 409 0 11
-51 c19 -86 76 -182 152 -254 110 -103 214 -145 361 -145 250 0 455 161 518
408 l11 42 816 -2 817 -3 12 -49 c46 -180 190 -326 373 -380 71 -21 211 -21
282 0 183 54 327 200 373 380 l12 49 282 3 282 2 0 1445 0 1445 -179 0 -178 0
-7 96 c-11 154 -59 234 -171 286 l-50 23 -590 2 c-341 1 -611 -3 -639 -8z
m-747 -399 l194 -150 1108 0 1109 0 0 -1198 c0 -660 -3 -1240 -7 -1291 l-6
-91 -200 2 -200 3 -13 52 c-35 139 -146 273 -280 341 -57 29 -161 52 -234 52
-73 0 -177 -23 -234 -52 -135 -69 -244 -203 -281 -348 l-11 -45 -72 -3 -72 -3
0 1016 0 1015 -635 0 -635 0 0 -1015 0 -1015 -105 0 -105 0 -2 1063 -3 1062
-735 5 c-810 6 -764 2 -796 69 -29 60 -16 89 160 352 163 244 204 292 268 316
24 8 239 12 813 12 l780 0 194 -149z m-839 -1085 l0 -325 -461 0 -460 0 7 23
c3 12 58 156 120 321 63 164 114 300 114 302 0 2 153 4 340 4 l340 0 0 -325z
m1159 -101 c19 -25 21 -40 21 -190 0 -98 -4 -173 -11 -187 -17 -38 -51 -47
-173 -47 -99 0 -117 3 -140 21 l-26 20 0 185 c0 237 -10 224 174 224 133 0
135 0 155 -26z m-1835 -906 c41 -93 41 -92 -7 -115 -24 -11 -74 -44 -112 -73
l-68 -51 -53 52 c-30 30 -54 56 -54 59 0 21 232 179 263 180 4 0 18 -24 31
-52z m-644 -213 l0 -125 -125 0 -125 0 0 125 0 125 125 0 125 0 0 -125z m2150
-40 l0 -85 85 0 85 0 0 -80 0 -80 -165 0 -165 0 0 165 0 165 80 0 80 0 0 -85z
m470 -165 l0 -80 -80 0 -80 0 0 80 0 80 80 0 80 0 0 -80z m-1573 -99 c114 -58
156 -191 97 -309 -14 -29 -31 -52 -38 -52 -6 0 -34 22 -60 49 -45 46 -48 51
-38 78 22 65 -35 121 -95 94 -25 -11 -30 -8 -80 41 l-54 53 32 27 c60 50 160
59 236 19z m2647 15 c66 -20 110 -57 140 -118 40 -79 32 -177 -19 -235 l-24
-28 -55 54 c-44 44 -53 58 -45 72 15 29 10 61 -13 86 -23 25 -67 30 -86 11
-10 -10 -25 0 -70 45 l-57 58 25 19 c27 21 101 48 136 49 11 1 42 -5 68 -13z"/>
<path d="M3675 2996 c-64 -29 -112 -77 -141 -141 -24 -49 -24 -54 -24 -411 0
-401 2 -418 66 -492 19 -23 60 -53 92 -69 l57 -28 435 0 435 0 52 24 c65 29
124 91 149 157 17 45 19 79 19 409 l0 360 -28 57 c-16 32 -46 73 -69 92 -76
65 -83 66 -562 66 -431 0 -431 0 -481 -24z m910 -140 c19 -8 44 -30 55 -48 19
-31 20 -50 20 -366 0 -368 -1 -375 -63 -412 -30 -19 -53 -20 -436 -20 -387 0
-405 1 -436 20 -63 39 -65 52 -65 412 0 362 2 373 71 410 31 17 65 18 427 18
319 0 399 -3 427 -14z"/>
</g>
</svg>
